/* XPM */
static char *_18ef139b5ac402c8142cd8a946d77f4tykCQQwq8tAT4ayh[] = {
/* columns rows colors chars-per-pixel */
"50 50 241 2 ",
"   c None",
".  c #02040E",
"X  c #0A070E",
"o  c #030B0C",
"O  c #0A0B0E",
"+  c #050607",
"@  c #0E100E",
"#  c #050512",
"$  c #090714",
"%  c #040A12",
"&  c #0B0A14",
"*  c #05061A",
"=  c #07091A",
"-  c #0D0C19",
";  c #0A051A",
":  c #100E1A",
">  c #180C18",
",  c #0C1314",
"<  c #071019",
"1  c #121313",
"2  c #131916",
"3  c #13121C",
"4  c #1A111C",
"5  c #14191C",
"6  c #1A1B19",
"7  c #17090A",
"8  c #2E0A0B",
"9  c #23110D",
"0  c #281518",
"q  c #290B19",
"w  c #1E231E",
"e  c #1B0C23",
"r  c #161521",
"t  c #1A1522",
"y  c #1B1A25",
"u  c #1A1827",
"i  c #0E1928",
"p  c #211E26",
"a  c #261925",
"s  c #261932",
"d  c #200E25",
"f  c #1E2626",
"g  c #1D2C34",
"h  c #222326",
"j  c #262B26",
"k  c #2A2F2A",
"l  c #282629",
"z  c #342A2C",
"x  c #28342B",
"c  c #31312D",
"v  c #363B3A",
"b  c #2B3135",
"n  c #37291D",
"m  c #7B0D0A",
"M  c #7C1812",
"N  c #5A291C",
"B  c #74281A",
"V  c #491A22",
"C  c #583638",
"Z  c #4B2F2F",
"A  c #7D2B37",
"S  c #683836",
"D  c #74302E",
"F  c #3B413E",
"G  c #514438",
"H  c #79423C",
"J  c #65463E",
"K  c #363B45",
"L  c #583B47",
"P  c #454946",
"I  c #565A55",
"U  c #535249",
"Y  c #775348",
"T  c #715251",
"R  c #5D635B",
"E  c #5C604F",
"W  c #646B65",
"Q  c #6C726A",
"!  c #70756E",
"~  c #747D6B",
"^  c #6F7370",
"/  c #737972",
"(  c #78787A",
")  c #83130C",
"_  c #8C140C",
"`  c #8B1516",
"'  c #931B15",
"]  c #850C0B",
"[  c #87241A",
"{  c #96221A",
"}  c #983C16",
"|  c #842A29",
" . c #8B2C2B",
".. c #872925",
"X. c #942522",
"o. c #932C23",
"O. c #982C29",
"+. c #983428",
"@. c #8A2A34",
"#. c #8A3537",
"$. c #983735",
"%. c #912B34",
"&. c #A52D28",
"*. c #AA372A",
"=. c #B43B27",
"-. c #BD3C25",
";. c #B4342B",
":. c #B43C2C",
">. c #BD3C2D",
",. c #B93328",
"<. c #AA3333",
"1. c #A53936",
"2. c #B43B34",
"3. c #BC3D33",
"4. c #B73835",
"5. c #B62C2C",
"6. c #961723",
"7. c #C23B2E",
"8. c #C23928",
"9. c #C33D33",
"0. c #C53937",
"q. c #CD2D26",
"w. c #AB4328",
"e. c #B34325",
"r. c #B3432A",
"t. c #BD432D",
"y. c #B84729",
"u. c #A94133",
"i. c #B54234",
"p. c #BC4333",
"a. c #BC443A",
"s. c #B74A39",
"d. c #994239",
"f. c #C2422D",
"g. c #C34234",
"h. c #C4433B",
"j. c #CB433C",
"k. c #C84738",
"l. c #CD543E",
"z. c #D24F3E",
"x. c #8E3943",
"c. c #C63E40",
"v. c #8D4545",
"b. c #9A4445",
"n. c #955151",
"m. c #B94643",
"M. c #BA5645",
"N. c #B1514B",
"B. c #88726B",
"V. c #B96662",
"C. c #B06859",
"Z. c #C94947",
"A. c #C95A4C",
"S. c #C75746",
"D. c #C95852",
"F. c #D3594D",
"G. c #CB6959",
"H. c #D8726B",
"J. c #D77776",
"K. c #D26568",
"L. c #E27A75",
"P. c #7B8578",
"I. c #728371",
"U. c #838D78",
"Y. c #88927B",
"T. c #C88779",
"R. c #ED967F",
"E. c #E47C81",
"W. c #7D8C84",
"Q. c #868D85",
"!. c #8A9685",
"~. c #929B88",
"^. c #969D93",
"/. c #A9968F",
"(. c #99A38E",
"). c #9BA594",
"_. c #9DA39B",
"`. c #9DA896",
"'. c #87AD98",
"]. c #A3AC9B",
"[. c #A4AB9A",
"{. c #A6B19C",
"}. c #AAB49E",
"|. c #ABBA9E",
" X c #A7B597",
".X c #B3B79D",
"XX c #B8A794",
"oX c #9DB3AA",
"OX c #A3A5A1",
"+X c #A5ABA3",
"@X c #A9ABA4",
"#X c #AAAEA9",
"$X c #ACB5A3",
"%X c #ADBAA3",
"&X c #ABB6A9",
"*X c #A7B6A8",
"=X c #B1BBA5",
"-X c #B3B5AD",
";X c #B3BAAB",
":X c #BBBCA7",
">X c #B6BCB2",
",X c #BBBAB6",
"<X c #A9B4BA",
"1X c #D68C86",
"2X c #D69785",
"3X c #EC8F84",
"4X c #EA9689",
"5X c #EB9B94",
"6X c #F19487",
"7X c #D6A29E",
"8X c #EBAB99",
"9X c #EEA996",
"0X c #EC9EA1",
"qX c #C6B8B7",
"wX c #D4B1AA",
"eX c #E6B8A9",
"rX c #F3B6A6",
"tX c #F4BAB5",
"yX c #EFB3B0",
"uX c #BAC2B5",
"iX c #BDC4BA",
"pX c #A5C3A6",
"aX c #C3C5BC",
"sX c #C3CBBE",
"dX c #C1CAB7",
"fX c #CBD1BE",
"gX c #EFC6B7",
"hX c #CBCAC6",
"jX c #C6C7C4",
"kX c #CBD3C4",
"lX c #CBD8C7",
"zX c #D4D8CB",
"xX c #DBDDD6",
"cX c #DCDED8",
"vX c #D4DBD2",
"bX c #CECCD4",
"nX c #F4D3C8",
"mX c #EFD5C9",
"MX c #DEE0DB",
"NX c #EDFAE9",
"BX c #E5E1CC",
/* pixels */
"                                                                                                    ",
"                                                    jXjXjXjXjXjX,XjX                                ",
"                                  fXmX  qXqXkXsXiX).^.uXuX>X&X>X>X>XQ.[.kXuXuXjX                    ",
"                              bXiXfXqXR /.dXpX|.%X(.P.{.$X&X%X&X[.$XU.Y.:XdXsX;X).iXvX              ",
"                              aXdX.X:XW.P.pXpX|.|.(.U.|.%XpX.X=X X XI.~.}.=X{.~.Y.sX>X;X            ",
"          tX0XE.L.3X2X8XgXgXBXuX|. X|.'.I.oX.X.X XY.P. X%X|.|.|. X[.~ ~.;X$X[.Q (.;X=XuXaX          ",
"        tXJ.D.c.9.k.y.s.S.G.1X2XXX.X|.*XI.'.pX|.|.Y.P.].{.].}.%X$X).I.).=X@XU.I.].%X%X$X-X          ",
"        0XM.2.3.8.f.f.l.f.k.m.S.G.T.wXpXW.I.uX[.!.E P ^ Q W W Q Q W I Q.).^.~ ].=X=X}.].-X          ",
"        4XM.w.:.e.r.w.g.0.j.h.3.9.Z.V./.R x P 0 3 # # . . # # # # . + 2 f 2 P.&X:XpX.XY.jX          ",
"        6XZ.=.e.w.w.s.s.a.3.Z.i.:.i.N.#.8 7 7 + * * * * * * * * * * . # , + 2 U.[.(.Y.Y.            ",
"        R.z.,.8.:.N.| B #.#.b.N.j.9.i.%.8 + < o # # * - # & * # # # * * . $ + k ).fXlXuX            ",
"        R.l.-.>.2.$.N Z w Z n N +.k.s.+.8 + - * . % & # . # # # . # * * # * o F +XdXuX=X            ",
"        4XS.e.8.8.$.Y ~.v Q.v G B f.e.1.8 X & = & & & & # $ X # # # ; - # $ o v _.$X{.$XxX          ",
"        4XS.e.8.q.<.Y *Xb   Z U B y.e.$.q o o = # # & $ $ $ # $ # # X X o X X v [.$X}.{.MX          ",
"        3XS.e.8.q.1.T <Xb   P B.D k.e.x.0 % # ; ; # $ $ $ $ $ $ & & $ X $ O X v [.}.}.[.xX          ",
"        3XS.=.y.,.$.T oXg   K ( S g.i.C 4 & # ; $ $ $ & $ & $ $ & & X & O $ X P [.=X}.[.MX          ",
"        R.l.e.e.0.b.T <XK   K Q.S z.>.z 3 < % e * & & & # & & & & & & & O $ & P ].&X%X).cX          ",
"        3Xl.e.r.5.x.B.qXI <XL ( J k.0.l 3 < % e & ; - & ; & & ; & & $ $ & O & P ].$X.X(.MX          ",
"        6XF.y.r.;.1.S C C C L T H Z.3.0 * < - ; ; & & & & - & & & & & & & O O P ].%X|.(.xX          ",
"        3Xz.r.w.4.N.b.v.x.x.x.x.N.p.2.V & & > # & - ; & ; & & ; $ $ > O O & O U OX%X|.[.xX          ",
"        5XF.a.s.g.Z.m.m.Z.m.M.Z.s.w.r.A e $ > < - - - : - - - & - & - & & & X I +X$X=X[.xX          ",
"        6XK.2.*.;.5.5.7.,.:.0.5.} } *.@.q $ > < : : : - - - & - - & - > & O O I ].$X.X].xX          ",
"        5XK.<.O.&.<.&.<.<.2.<.4.=.} *.@.> & > * : : : : : - : - - - : : 1 O @ I +X%X%X].xX          ",
"        5XH.1.<.<.+.#.#. .| | o.o.+.o.A 9 - 4 : : , : : : : : : : : : : : @ O R +X$X%X[.cX          ",
"        5XH.2.&.X.<. ...o. ...[ ) ) m A 7 , 4 - : : : : : : : : - : : - : - O I +X$X=X].cX          ",
"        4XH.&._ ' ) m m m ] m ) ) ' { A 9 , 4 , 3 : : 3 3 : 1 3 3 - r - : @ @ R $X%X=X].cX          ",
"        4XA.{ ) _ ' ' { &.4.;.;.-.t.h.| 9 , 4 & : : 3 : : 3 : : 3 3 e : : @ @ I @X$X=X].cX          ",
"        9XA.*.,.;.*.:.p.k.z.3.9.8.>.a.| 9 , 4 3 3 3 : 3 3 3 : 3 3 - r : 3 @ 1 R $X%X%X{.MX          ",
"        4XS.s.t.9.p.p.3.j.j.h.f.8.8.g. .9 2 4 3 : 3 : 3 : 3 : 3 : : r 3 4 1 1 R @X%X{.$X            ",
"        9XA.a.9.9.p.p.3.g.9.g.7.-.f.h. .9 : r e 3 3 3 3 3 3 3 3 r : e r 4 1 1 R $X&X$X{.            ",
"        5XD.h.9.9.3.p.3.g.f.p.t.-.7.a.@.9 3 e t r r 4 r 5 r r r r r t r 3 2 1 R @X=X$X{.            ",
"        5XD.h.3.3.3.p.r.g.9.s.p.-.g.a.#.0 r d t r r r r r r 4 r r r t r 5 3 2 R @X$X%X{.            ",
"        9XA.h.9.3.p.g.>.h.g.:.t.f.f.s.S a y e u r r r r r t t t t t t r 4 5 2 U (.`.(.*X            ",
"        8XA.g.9.-.p.7.0.j.3.f.f.-.f.s.J z t u u t t e t r 4 4 t t 6 t t 5 2 2 R !.!.`.%XzX          ",
"        9XA.9.8.t.t.3.7.j.9.9.y.f.9.1.C l t s i r t t t t a t t t t t 5 5 5 2 W.uXiX*X&X$X          ",
"        rXA.9.7.t.t.7.7.j.3.k.k.t.j.m.Z a e s u y y u a y y t u y y u y r i 3 W oX#X&X*X>X          ",
"        rXF.7.7.f.y.>.9.h.2.Z.h.p.3.1.Z 0 u s u y y y y y y u y y y u u y 5 3 W _._._.].zX          ",
"        rXA.9.7.p.p.>.>.k.i.2.5.5.*.$.V a s u t t t u u u u t t t r y y r f 2 I W./ P.$XzXhX        ",
"        rXA.9.9.r.s.k.h.a.1.<.1.;.&.| S z s a r h y h p p y p y p y y y r f 5 Q.>XuXlXlXaXaXzX      ",
"        gXG.9.h.s.u.*.*.O.1.<.+.{ *.$.J h a a g h l h h h h h h h h y y f y f (.*X*X%X].@X-XzX      ",
"        tXH.m.<.+.{ +.+.O. .O.o.[ ) [ J x k c x k k k k k j j k l l l l j w j ).&X%X}.=X].-XzX      ",
"        tXH.<.<. .+.+.[ +...[ M o.u.C.B.Q ~ / Q / / / / / ! ! ! ! ^ ( ^ W W R ^.%X%X|.{.$X-XxX      ",
"        yXJ.1.<.{ +. .o.` ` D n.1X7XwX@X@X&X&X+X@X@X@X@X@XOXOXOXOXOX@XOX_._.^.>XiXiXdXuXaXhX        ",
"        rXJ.1.6.o.` ) ` X.N.7X                                                                      ",
"        wXJ.A ` ] ` <.V.eXtX                                                                        ",
"        mXT.B ` 6.E.7XBXNXNX                                                                        ",
"        nXE.V.V.yX      NX                                                                          ",
"          mXyXmX                                                                                    ",
"                                                                                                    ",
"                                                                                                    "
};
