/* XPM */
static char *result[] = {
/* columns rows colors chars-per-pixel */
"50 50 83 1 ",
"  c #973B2A",
". c #983D2B",
"X c #9E422D",
"o c #9E4434",
"O c #A2452E",
"+ c #A6492E",
"@ c #A94B2F",
"# c #A74A30",
"$ c #AA4C30",
"% c #B34E33",
"& c #B24F3C",
"* c #B05036",
"= c #BA5136",
"- c #B4513A",
"; c #C35439",
": c #CB563D",
"> c #A55F4F",
", c #BC5742",
"< c #AB6554",
"1 c #AD6A59",
"2 c #C05945",
"3 c #C2564F",
"4 c #C55C4A",
"5 c #CC5F50",
"6 c #CE6152",
"7 c #D36356",
"8 c #D56458",
"9 c #D8665C",
"0 c #DE6A62",
"q c #DC736A",
"w c #DF7371",
"e c #DE7C7B",
"r c #E46C66",
"t c #E66E6B",
"y c #EB6F6D",
"u c #E3706E",
"i c #ED716E",
"p c #E17371",
"a c #EE7371",
"s c #E37A70",
"d c #EE7976",
"f c #E27E7C",
"g c #EF7D79",
"h c #F07371",
"j c #F07C7A",
"k c #EF827D",
"l c #F0857F",
"z c #DF8B8A",
"x c #C29B8F",
"c c #C39D92",
"v c #DD9593",
"b c #EF8781",
"n c #EE8B84",
"m c #EE8B89",
"M c #F08681",
"N c #F08881",
"B c #EC9391",
"V c #C9A59C",
"C c #CEABA3",
"Z c #CBBAAC",
"A c #D6B3AD",
"S c #CFBFB0",
"D c #D7B5B0",
"F c #D8B7B0",
"G c #E0A1A1",
"H c #EDA3A2",
"J c #E1A8A7",
"K c #ECA8A7",
"L c #E2AEAD",
"P c #ECB1AE",
"I c #E2B4B2",
"U c #ECB4B2",
"Y c #E4BCB9",
"T c #D2C2B4",
"R c #D6C6B9",
"E c #D7C9BC",
"W c #DACBBE",
"Q c #EBC0BF",
"! c #DDCFC1",
"~ c #DFD1C4",
"^ c #EBC3C3",
"/ c #EBCAC9",
"( c None",
/* pixels */
"((((((((((((((((((((((((((((((((((((((((((((((((((",
"((((((((((((((((((((((((((((((((((((((((((((((((((",
"((((((((((((((((((((((((((((((((((((((((((((((((((",
"((((((((((((((((((((((((((((((((((((((((((((((((((",
"((((((((((((((((((((((((((((((((((((((((((((((((((",
"((((((((((((((((((((((((((((((((((((((((((((((((((",
"((((((((((((((((((((((((((((((((((((((((((((((((((",
"((((((((((((((((((((((((((((((((((((((((((((((((((",
"((((((((((((((((((((((((((((((((((((((((((((((((((",
"((((((((((((((((((((((((((((((((((((((((((((((((((",
"((((((((((ia((((((((((((((((((((((((((((((((((((((",
"((((((((iaids*+(((((((((((((((((((((((((((((((((((",
"(((((((iaiikj6@@@(((((((((((((((((((((((((((((((((",
"((((((yiillkhr*@@@@(((((((((((((((((((((((((((((((",
"((((((aillaiai,-;;=@+(((((((((((((((((((((((((((((",
"(((((yaakiihaa4@%;::=$((((((((((((((((((((((((((((",
"(((((iaibaaiaa6@@$*;:;%(((((((((((((((((((((((((((",
"((((iaaamaaaah7$@@@@=:;%((((((((((((((((((((((((((",
"((((iiiHQziaah8$$$@@$*:;$(((((((((((((((((((((((((",
"((((iiB^/Luhih7@$$@$$$$;=@((((((((((((((((((((((((",
"(((iidUAAYwaaa7@$$$$$$$$%$@$@(((((((((((((((((((((",
"(((iimQVVIpaaa5@$$@$$$$$$$$$$$@@((((((((((((((((((",
"(((iaHAxVIpaai4@$$$$$$$$$$@$$$$$@(((((((((((((((((",
"(((dNPCcCJtaai,$$$$$$$$$$$$$$$$$$$((((((((((((((((",
"((ilgPCcFvaaat-$$$$$$$$$$$$$$$$$$$$(((((((((((((((",
"((glaUACFeaaa0$$$$$$$$$$$$$$$$$$$$$+((((((((((((((",
"((NdiK//Gtaah7$$$$@$$$$$$$$$$$$$$$$@.(((((((((((((",
"((naim^Ikiiaa2$$$$$$$$$@$$$$$$$$$$$$X(((((((~~~Z((",
"((gaiakdldihr&@$$$@$$$$$$$$$$$$$$$$@X>((~~~~~~WZ((",
"((aaiayadlia8$$$$$$$$$$$$$$$$$$$$$@$.1~~~~~~~~TZ((",
"((yaaaaaaNii2@$$$$$$$$$$$$$$$$$$$$@+ <~~~~~~~~W(((",
"((yadgaakga0%@$$$$$$$$$$$@$$$@$$$@@O <TRE~~~~~~(((",
"((yaNbbMgah2$$$$$$$$$$$$$$$$$$$$@$OX.>(ZZZE~~~~Z((",
"(((abaaaah9$$$$$$$$$$$$$$$$$$$$$#X...((((((EWWTZ((",
"(((ajlaaat-$$$$$$$$$$$$$$$$$$$@OX...(((((((((ZZ(((",
"(((yykkay,$$$$$$$$$$$$$$$$$$#OX. ..(((((((((((((((",
"((((aakq,OO+@$$$#$$$$$$$#OOo....  ((((((((((((((((",
"((((((3o ....XXXOXOXXXX.......  ((((((((((((((((((",
"(((((((((( ..... ........... (((((((((((((((((((((",
"((((((((((((((((       (((((((((((((((((((((((((((",
"((((((((((((((((((((((((((((((((((((((((((((((((((",
"((((((((((((((((((((((((((((((((((((((((((((((((((",
"((((((((((((((((((((((((((((((((((((((((((((((((((",
"((((((((((((((((((((((((((((((((((((((((((((((((((",
"((((((((((((((((((((((((((((((((((((((((((((((((((",
"((((((((((((((((((((((((((((((((((((((((((((((((((",
"((((((((((((((((((((((((((((((((((((((((((((((((((",
"((((((((((((((((((((((((((((((((((((((((((((((((((",
"((((((((((((((((((((((((((((((((((((((((((((((((((",
"(((((((((((((((((((((((((((((((((((((((((((((((((("
};
