/* XPM */
static char *_e652a6aa5af4d06b4fb346137213cb5GCZlHa5FbmGSZcAO[] = {
/* columns rows colors chars-per-pixel */
"50 50 230 2 ",
"   c None",
".  c #15181A",
"X  c #0F1315",
"o  c #26171C",
"O  c #32170D",
"+  c #2D211D",
"@  c #181727",
"#  c #241924",
"$  c #172124",
"%  c #192434",
"&  c #2E2627",
"*  c #2A2834",
"=  c #362939",
"-  c #273434",
";  c #312D26",
":  c #401E1A",
">  c #78341F",
",  c #472B27",
"<  c #46322C",
"1  c #5F3937",
"2  c #7A2B22",
"3  c #683736",
"4  c #773835",
"5  c #733329",
"6  c #532817",
"7  c #35453D",
"8  c #43413E",
"9  c #694436",
"0  c #393A4B",
"q  c #2D3541",
"w  c #4B3C49",
"e  c #394647",
"r  c #47494A",
"t  c #464457",
"y  c #475954",
"u  c #515854",
"i  c #7B4942",
"p  c #6C5843",
"a  c #735E51",
"s  c #71504B",
"d  c #76634D",
"f  c #726D59",
"g  c #737D67",
"h  c #873A34",
"j  c #8B372B",
"k  c #B83C27",
"l  c #BA3D39",
"z  c #A0392E",
"x  c #C33B31",
"c  c #964329",
"v  c #8C4238",
"b  c #98493B",
"n  c #88523A",
"m  c #904E33",
"M  c #AA472D",
"N  c #B5422D",
"B  c #BA442E",
"V  c #B74B2E",
"C  c #BA552F",
"Z  c #A84736",
"A  c #B54232",
"S  c #BB4533",
"D  c #BC4A34",
"F  c #BC4B3B",
"G  c #B64939",
"H  c #A6533B",
"J  c #B7533B",
"K  c #C54B2D",
"L  c #C34535",
"P  c #C24B34",
"I  c #CA4F32",
"U  c #C34B3C",
"Y  c #CD4D3B",
"T  c #C44536",
"R  c #D34D3D",
"E  c #D54C39",
"W  c #CC5334",
"Q  c #C4523C",
"!  c #CD523C",
"~  c #C75937",
"^  c #D3553C",
"/  c #D7593D",
"(  c #D7573A",
")  c #C4572E",
"_  c #9C4E43",
"`  c #964942",
"'  c #875B4C",
"]  c #99574B",
"[  c #8C5B53",
"{  c #835955",
"}  c #965E50",
"|  c #AB4C43",
" . c #A54D48",
".. c #B84C45",
"X. c #A65245",
"o. c #AA5145",
"O. c #A55A46",
"+. c #A95949",
"@. c #B45344",
"#. c #BC5B46",
"$. c #B85749",
"%. c #BF4F52",
"&. c #B95A52",
"*. c #A65D52",
"=. c #91634C",
"-. c #8D6352",
";. c #866356",
":. c #936354",
">. c #936359",
",. c #996659",
"<. c #896856",
"1. c #AC624B",
"2. c #B9664E",
"3. c #A96454",
"4. c #B36553",
"5. c #B46A57",
"6. c #977665",
"7. c #877E74",
"8. c #B47968",
"9. c #A17665",
"0. c #C44E43",
"q. c #CA4B44",
"w. c #D74D47",
"e. c #C45242",
"r. c #CC5643",
"t. c #CC5B44",
"y. c #CD554B",
"u. c #CD5B4A",
"i. c #C45849",
"p. c #D35443",
"a. c #DB5343",
"s. c #D45944",
"d. c #D95A43",
"f. c #DA544C",
"g. c #D35A4B",
"h. c #DB5A4C",
"j. c #D3554B",
"k. c #C45652",
"l. c #D85A52",
"z. c #E5574A",
"x. c #E55D55",
"c. c #E04B4A",
"v. c #C56449",
"b. c #D7664D",
"n. c #DC6352",
"m. c #D16751",
"M. c #E46B5C",
"N. c #E06164",
"B. c #7C8A77",
"V. c #67967D",
"C. c #799679",
"Z. c #768B6D",
"A. c #848F7B",
"S. c #978877",
"D. c #88957C",
"F. c #978A74",
"G. c #A3846D",
"H. c #A78A79",
"J. c #7B9B83",
"K. c #879787",
"L. c #939C8D",
"P. c #979884",
"I. c #9A9D94",
"U. c #929C9B",
"Y. c #848F82",
"T. c #A69783",
"R. c #8CA38B",
"E. c #9BA589",
"W. c #99A395",
"Q. c #9BAA9B",
"!. c #97A796",
"~. c #9DB398",
"^. c #A7A98B",
"/. c #B7A48E",
"(. c #A5AE94",
"). c #A1AB9B",
"_. c #A5A794",
"`. c #B4AA98",
"'. c #A9B296",
"]. c #A4B59C",
"[. c #ABB49B",
"{. c #A3BA9E",
"}. c #A9BA9E",
"|. c #A7B093",
" X c #B3B39D",
".X c #BBB29B",
"XX c #ACB18F",
"oX c #96ACA2",
"OX c #9CB9A3",
"+X c #A9ADA5",
"@X c #A3B5A4",
"#X c #ACB5A3",
"$X c #A5BBA4",
"%X c #ADBAA3",
"&X c #ADB5A9",
"*X c #ABBDAA",
"=X c #A3BFA9",
"-X c #B3B3A4",
";X c #B0B9A5",
":X c #B3B7AA",
">X c #B2BAAC",
",X c #B9B7A8",
"<X c #B3BCB2",
"1X c #BABBB4",
"2X c #BEBBB8",
"3X c #ADBEB0",
"4X c #CBB09A",
"5X c #BBC19E",
"6X c #9CC2B0",
"7X c #ABC1A8",
"8X c #B6C1AC",
"9X c #B3C1A7",
"0X c #B5C2B3",
"qX c #BBC2B4",
"wX c #BDC3BB",
"eX c #BACAB8",
"rX c #C4C3B6",
"tX c #C3C5BB",
"yX c #C2CBBE",
"uX c #C6CDB9",
"iX c #C2C4AF",
"pX c #BFC9C2",
"aX c #C2CBC1",
"sX c #C6C9C3",
"dX c #CCD1C6",
"fX c #CDD4CB",
"gX c #C8DDCD",
"hX c #D1D3C7",
"jX c #E7D9D3",
"kX c #CAE1CB",
/* pixels */
"                                                                                                    ",
"                                                  sX2XpXpX2XwX                                      ",
"                              uXjXjXyX2X2XtXsXU.K.1X1X3X<X<X2X<XI.I.<XwXwXpX                        ",
"                          dXyXqX`.f !.qX<X&X:XR.J.oX#X#X%X*X@X+XY.K.<XwXeX<XK.tXhX                  ",
"                          dX8X,XrXY.J.OX=X=X*XR.V.{.7X7X%X#X~.@XJ.K.@X*X3XQ.Y.>X1XtX                ",
"                          yX>X%X@X!.C.*X#X#X#XL.C.'.}.7X%X$X].Q.A.L.].$X@XB.W.7X>X0XtX              ",
"                          >X;X;X{.~.C._.-X-X XA.g ^.H.~.~.E.~.C.Z.!.[.(.K.A.~.7X*X*XwX              ",
"                          &X;X;X{.$XD.S.`./.T.d p 6.G.G.H.G.G.d d F./.T.F.P.}.{.$X@X<X              ",
"                        fX+X#X;X%XE.<.a ,.} } ] ` n O.+.&. .+.X._ ] 3.} 9./.9X{.7X@X                ",
"                        sXK.g K.'.' %.l.N.@.] X.Z A J J H c H Z Z J 0.k.&.8.4XD.J.R.                ",
"                        fXfXqXE.Z.> 4.H Z A k r.z.N P d.E x Y n.Q M M c b n H.eXgXgX                ",
"                        fXqX8X9XXX9 i.e.q.T S r.z.K ! d.K k T b.Q B ~ J @.] 4XuX0XeX                ",
"                        fX>X#X[.XX=.( z.z.q.G #.k.` ] *. .v ` ] H k R ^ ! +./.-X$X7X                ",
"                        fX>X:X;XXX=./ ( w.q...v s w e e w w 0 e i l a.E W +.|.-X#X$X                ",
"                        fX&X&X%X Xd #.f.a.0.| 3 # q e $ * 0 % - i l r.! ! O.|.-X%X}.                ",
"                        sX&X#X%X#Xf } y.j.G  .1 @ % q X @ 0 . - i l y.e.e.O.|.-X;X}.                ",
"                          #X#X%X+Xy s %.z.C b 1 $ % - . # = # o 4 l w.E Y O.(.,X;X}.                ",
"                          +X#X;X+Xy w ..x.V b 3 @ @ * X o = o O j x E E Y O.'.-X X}.                ",
"                          #X#X:X+X7 , k.M.V H 3 # # ; . . * # O > D ~ W ^ 1.'.-X}.}.                ",
"                          +X#X%X).r 1 k.g.C H 5 O : , < ; , , 6 c W ) ~ t.1.'.-X;X%X                ",
"                          #X#X;X-Xa ` 0.g.U V Z > 2 j v 2 h ` o.0.w.Y j.f.1.[.-X X%X                ",
"                          +X#X%X X} Q s.n.T N W C D / ( k A y.0.T T k.k.k.4.'.-X X7X                ",
"                          &X#X%X}.=.I d.g.l k W ) D / ( k B r.U S .. .` $.3.'.-X%X}.                ",
"                          #X%X#X7X-.Y d.! S N W W Q u.s.k B ! Y U .. .h &.5.(.;X}.}.                ",
"                          &X#X#X$X-.^ d.^ e.S I W D y.l.N B ! W I ..| h &.5.'.:X%X}.                ",
"                          &X;X%X$X:.Y / R e.A W I D b.M.N B ! ^ T ..Z h &.5.].,X%X}.                ",
"                          :X%X%X*X-.! / ^ F N ! I P n.M.N S ^ a.R U z j #.4.'.,X%X}.                ",
"                          &X&X%X7X-.Y ( d.F N ^ W S l.M.N P r.g.p.S l j ..5.'.,X%X}.                ",
"                          :X#X%X7X-.! ( / U F ^ W B u.n.S Q s.R R Y y.#.u.5.'.-X%X}.                ",
"                          <X;X%X7X[ Y ( p.U F ^ K B g.g.N Q r.Y Y w.s.u.u.5.[.-X}.}.                ",
"                          <X#X%X7X' ! / d.F D ^ K D g.s.N e.g.p.a.R p.! r.4. X;X].}.                ",
"                          >X#X%X=X' Y / d.D D ^ K D g.p.N Q j.p.a.^ a.^ t.4.}.-X].[.                ",
"                          >X).).oXa $.j.h.S S / K D t.s.N D s.s.Y ^ a.t.~ 4.^.{.!.|.                ",
"                        fX>XW.L.J.u ] y.g.S S g.S M v.s.B B ^ s.! I a.r.i.2.D.E.R.Q.                ",
"                        dXqX#XQ.U.t i q.f.S F f.q.N t.s.S T s.g.Y R p.p.i.8.5X7X;X>X<X              ",
"                        wX&X#X#X+Xr 3 q.f.F ..f.w.M t.e.F U u.g.U q.g.g.Q 5.D.7X%X:X&X              ",
"                        wX#X;X:X&X8 5 q.f.F 0.l.c.N i.r.U U j.g.T q.l.g.$.3.'.7X#X#X>X              ",
"                      dXyX).L.W.R.< 5 0.p.U 0.l.f.k Q b.T D s.d.T ! h.g.$.' D.D.D._.pXgX            ",
"                    fXuXuXqX8XuX7X9 O.v.v.e.e.l.b.N Q m.Q M v.b.V G t.t.+.6.#X[.rXuXeX0X            ",
"                    dX+X#X].'.].~.6.@.2.J #...&.2.M J #.@.J #.#.G J i.2.&.H.9X9X,X X@X@XaX          ",
"                    dX:X:X;X%X%X7X6.Z +.H  .z  ._ b o.X.+.| | X. ...&. .] S.}.].`.`.$X~.pX          ",
"                    hX:X;X#X}.#XOX7.{ [ :.[ a { ;.' >.>.,.>.>.[ [ [ >.,.[ S.#X%X X X$X~.eX          ",
"                    dXqXwXqXqXqX6XoX+XQ.).W.Q.oX).W.!.W.W.!.W.W.I.W._.I.I.+XeXtXrXrXwXeX            ",
"                                                                                                    ",
"                                                                                                    ",
"                                                                                                    ",
"                                                                                                    ",
"                                                                                                    ",
"                                                                                                    ",
"                                                                                                    "
};
