/* XPM */
static char *_5d8dcac052b4416e7c2c09678c6203aFSOkmWCNptp8iyU4[] = {
/* columns rows colors chars-per-pixel */
"50 50 189 2 ",
"   c #010004",
".  c #07040B",
"X  c #08070C",
"o  c #0B090F",
"O  c #0D0B15",
"+  c #0C0E19",
"@  c #0C0612",
"#  c #110E16",
"$  c #120D1A",
"%  c #0F1014",
"&  c #0F131F",
"*  c #131017",
"=  c #14121A",
"-  c #1A161E",
";  c #0C1220",
":  c #121621",
">  c #161B24",
",  c #1B1B23",
"<  c #1E1E29",
"1  c #211F2B",
"2  c #231E25",
"3  c #1D2226",
"4  c #1E232B",
"5  c #202126",
"6  c #22242C",
"7  c #29272E",
"8  c #272B2E",
"9  c #242532",
"0  c #2A2731",
"q  c #252934",
"w  c #2A2C34",
"e  c #252638",
"r  c #262C3A",
"t  c #2B2D39",
"y  c #312E36",
"u  c #312F3A",
"i  c #2F3237",
"p  c #2E313C",
"a  c #33333C",
"s  c #39363F",
"d  c #35393C",
"f  c #3D3B3E",
"g  c #2E3343",
"h  c #333542",
"j  c #393642",
"k  c #363943",
"l  c #3B3B45",
"z  c #393649",
"x  c #363C4C",
"c  c #3C3D4B",
"v  c #3F3D50",
"b  c #403C45",
"n  c #413E4C",
"m  c #423E52",
"M  c #3C4043",
"N  c #3E424D",
"B  c #3D4351",
"V  c #3E445A",
"C  c #42434C",
"Z  c #48444D",
"A  c #45494E",
"S  c #444453",
"D  c #494655",
"F  c #454954",
"G  c #4A4B55",
"H  c #45465A",
"J  c #4A465B",
"K  c #464A5B",
"L  c #4A4C5B",
"P  c #514F5C",
"I  c #4C5155",
"U  c #4D515C",
"Y  c #525457",
"T  c #52535C",
"R  c #55595D",
"E  c #474D63",
"W  c #4D4E61",
"Q  c #504E63",
"!  c #4D5263",
"~  c #4E5368",
"^  c #535464",
"/  c #585663",
"(  c #555965",
")  c #595B66",
"_  c #54566A",
"`  c #565A6A",
"'  c #5A5C6C",
"]  c #575771",
"[  c #575C71",
"{  c #5C5E71",
"}  c #625F66",
"|  c #605F6D",
" . c #605F72",
".. c #5E6267",
"X. c #5D626D",
"o. c #5D6173",
"O. c #5E6479",
"+. c #616267",
"@. c #62646D",
"#. c #676A6F",
"$. c DimGray",
"%. c #626473",
"&. c #686775",
"*. c #656974",
"=. c #6A6D75",
"-. c #626579",
";. c #656B7A",
":. c #6B6D7B",
">. c #6D7077",
",. c #6D727C",
"<. c #72747E",
"1. c #74797D",
"2. c #7E7D7D",
"3. c #676783",
"4. c #676D81",
"5. c #6C6E82",
"6. c #6D7282",
"7. c #6D7388",
"8. c #737583",
"9. c #757B84",
"0. c #7C7E82",
"q. c #72768A",
"w. c #767B8B",
"e. c #7A7E8B",
"r. c #7A7D92",
"t. c #757B91",
"y. c #807F83",
"u. c #7C8086",
"i. c #7D838B",
"p. c #7D8293",
"a. c #7F859B",
"s. c #838284",
"d. c #8B8786",
"f. c #8C8887",
"g. c #82858B",
"h. c #89878A",
"j. c #85898D",
"k. c #8D8D8D",
"l. c #918B8B",
"z. c #90908E",
"x. c #828592",
"c. c #858A93",
"v. c #8A8C94",
"b. c #82859A",
"n. c #858A9A",
"m. c #8B8E9B",
"M. c #918C90",
"N. c #8D9294",
"B. c #8E929A",
"V. c #8F969C",
"C. c #8D929C",
"Z. c #929293",
"A. c #91969D",
"S. c #92959C",
"D. c #99969D",
"F. c #92999F",
"G. c #959A9E",
"H. c #9B9D9E",
"J. c #9C9C9F",
"K. c #8789A2",
"L. c #8E93A1",
"P. c #8F98A1",
"I. c #9294A0",
"U. c #9395A2",
"Y. c #939AA1",
"T. c #949BA1",
"R. c #9699A2",
"E. c #969DA3",
"W. c #979EA4",
"Q. c #959AA1",
"!. c #989BA1",
"~. c #9A9DA2",
"^. c #999EA6",
"/. c #9B9DA5",
"(. c #9798AA",
"). c #9A9DA9",
"_. c #9C9FB0",
"`. c #A19EA4",
"'. c #9AA1A7",
"]. c #9BA0A3",
"[. c #9DA1AA",
"{. c #A0A1A3",
"}. c #A6AAAD",
"|. c #ACABAC",
" X c #A4A3A9",
".X c #A4A6B5",
"XX c #A8ABB4",
"oX c #B3AEB2",
"OX c #ADB2B7",
/* pixels */
"H.N.S.k.V.j.!.c./.0.!.OXD.G.}.N.].F.V.T.E.T.V.V.T.N.a.E.].T.T.E.c.'.'.i.W.OXW.'.T.P.T.W.'.].'.}.].s.",
"k.u.j.s.c.u.S.g.n.U.&.A R Y R s.1.>.,.1.u.u.u.u.u.u.u.u.u.i.i.u.i.i.i.i.,.I d #.i.u.9.u.i.i.1.I H.k.",
"N.j.H.S.!.m.).U.g.!.R > 8 d C j.N.a.N.N.a.i.i.i.i.i.a.i.i.i.i.1.i.1.u.i.>.d > R P.W.P.i.a.T.,.i k.k.",
"N.g.].S./.U.U.c.9.e.:.G 6 I u.k.i.u.u.9.=.X.X.X.*.u.i.i.a.i.u.*.*.X.O.#.*.B r B i.i.i.1.X.;.( 4 i.j.",
"S.e./.m.U.m.e.<.&.&.8.:.q $.D.9.,.,.,.,.;.X.X.X.( *.,.*.,.,.;.( X.X.X.^ X.U h N a.9.u.,.( X.X.k k.k.",
"/.g.`.x.m.c.8.:.&.w.:.' t *.e.<.X.X.X.X.` ! ! ^ ` X.o.( ( ..*.X.%.%.*.o.X.H g ^ i.( ( *.` ` ( i N.z.",
"!.9.R.8.:.5. .:.5.r.' L p =.=.=.O.o.o.o.o.X.` ` ` ..` ~ ( ! ( ` ' ' o.' ^ x r ^ a...` ;.o.O.X.r z.k.",
"R.0./.:. .&.-.q.;.&.L ^ q :.8.( o.X.` X.o.o.' X.` [ o.*.o.` ~ ( [ o.%.^ ( J g H a...[ o.! X.` q j.z.",
"!.0.n.<.&.%.5.:. .' W ^ 9 =.9.' %.' ' { ' ' _ ' ( X.^ ^ ;.%._ -.` ( ' W L S g m e.| ] ' ' ' L q N.k.",
"R.8.!.:.%.( ' L ] { ^ L 9 =.0.^ &.%.%.%.` J K L V U H K ' ' _ :.L H L S H B g B ;._ ^ ( _ X._ h z.k.",
"[.s.XX%.' ' X.( L ' ^ L 6 X.,.R o.X.' ) L C c S B K B F L G J ( J F J m D B t z -.) ' ' ^ ' J w k.k.",
"R.=./.T T ^ ' ^ ' X.' T 6 A R R ^ ^ ^ U J F F G K I I K L F c c G F L F K S t a ^ ) @.) / _ S 2 c.k.",
"}.9.H...@.X.X.( ' ^ U F 3 6 d A G Z S C S D D D D C C A D D D A C C D A G C 9 y y l n n F D l w j.k.",
"~.R A i i i a a l a a a 3 3 8 d y a a p a s d a j t u a i C T G D A G A C h < 0 1 w 0 9 a y 6 6 j.f.",
"}.Y - N A C U U C C F F I I M 5 5 y C C n C n b A C Z l 7 t C f C n A h a w , a G P G A P s : = s.f.",
"H.R 3 j.V.x.c.e.n.B.v.i.N.v...3 w G =.>.>.=.>.<.=.=.8.+.a 6 0 < 6 6 t 6 6 0 0 D x.v.c.v.v._ 9 , d.j.",
"'.*.i.9.n.C.p.r.q.a.a.6.o.;.o.( w C 8.%.;.&.{ Q ^ W ! L F g u 8.;.6.u.7.7.7.5.:.K.b.q. ./  .' O s.f.",
"'.9.n.,.;.-.4.a.n.a.q.O.X.o.` U t C 8.;.;.' W H J H U L F t k e.i.i.4.4.9.a.K.b.3.3.-. .]  ./ $ s.h.",
"'.i.C.*.` ! { q.b.q.-.` ` ~ L S p C <.%.' L S S H H ! L S p l x.a.i.O.o.4.t.a.t.] ] ]  . . .T & s.f.",
"'.9.x.X.` ' { -.4.[ ~ ~ X.~ F x t A <.L K S K L W W ^ J l q k g.,.o.( ! o.O.-.O. .] ] -.{ ^ F % s.k.",
"'.9.i.^ ^ { ' { _ H H _ ^ L S S w G ,.C C I ^ G L L U N h w M i...( U ~ ( o.o.o.-._ W _ P D C O s.k.",
"/.u.c.L n J Q { W E m H H v v F w A >.A G ^ L x c x C k d a M u.X...( ( ( ^ ` X._ J x S n C C * s.h.",
"`.y.v.G b m E Q J E m m v c n n i d R A U G N h k h k d d d a @.@...( ( U B B V v B c S c A C * s.k.",
").y.h.P m J m v m H m m D D n z i 6 M f G N h k l k k d k 8 3 A Y B I R U K N N S F S F C D C X 2.d.",
"`.y.<.Z n D D z H m m m n m m 0 i 8 w i h l z u a z l p w 8 8 6 d B M B r B V B z S z l Z G b # s.f.",
"`.^ l 1 0 e 9 g e e g h u 9 1 0 5 3 3 6 9 w t t q t w 6 3 6 5 3 8 4 > M r d r 4 < t r 0 2 6 8 X s.f.",
".X+.&.+.<.Q 9 9 h %.8.o. .:.&.&.#.#.&.#.*.=.:.8.:.:.:.&.#.=.>.#.M 3 4 I ..X.` [ o.( / ) R ) +.6 d.f.",
"`.1.G.c.U.8.g 9 _ (..XC.(..XS.m.B.G.!.R.R.U.U.U.L.C.m.m.V.S.V.N.M 4 B ;.u.i.u.i.x.6.9.m.g.c.y.y k.l.",
"].1.a...&.( h ^ a.n.a.C.).9.X.9.<.u.j.n.x.w.5.:.;.&.:.:.,.,.*.+.r d ,.u.6.%.^ _ _ ^ :.x.=.@.&.7 l.l.",
"}.1.j...' C 9 6._.P.i.w.p.>.X.1.@.:.8.0.8.;. .' { ' { &.=.X.( R M B i.;.` ^ W _ ^ W ' :.| +.@.u M.l.",
"].1.V.X.o.B ; ` a.C.i.O.X.,.9.,.@.%.%.&.&. .{ ' { { -.:.:.@.' X.k p =.L K ^ E ' W L S ^ ' ' / i Z.l.",
"T.1.N.M I U 4 ` 9.,.6.;.( ( X.=.' ) ^ U ^ ' ' ] _ _ ' %.' ^ ( ) k q o.^ ' ( c h z J F J D b n t l.f.",
"N.1.F.R M r 8 V *.X.` X.X.X...X.R ( ..R U M 4 g r p k k h h p p < t P b l G b n C n C Z n D C 0 c.l.",
"}.1.>.M r g r M I V U I K I I B U R R B M 4 4 M x k k x N l l N h a l s j n b Z b s s j j b b y h.k.",
"].N 3 8 4 r r r r r r r r r r r 4 q r r 4 : r U m.x.x.n.m.p.p.m.u 1 , w u 2 1 6 u 6 7 0 0 6 , # h.k.",
"}.N 4 1.,.*.4.4.,.4.7.,.<.9.9.,.,.u.1.;.U B *.N.x.x.i.x.p.p.p.i.y.@.y w w t ^ @.&./ } &.} D a - h.k.",
"T.I A a.a.i.a.a.a.a.p.p.n.n.p.9.i.i.u.u.I g *.i.w.b.a.p.p.a.p.7.e.5.h 4 9 l :.>.&.X.%.>.%.G t O g.v.",
"P.u.i.a.i.a.a.i.p.a.p.p.w.w.6.o.( ` ~ O.B g q.n.w.p.p.p.p.p.7.O.' &.^ B J %.9.X.X.` X.o.' ^ c > y.k.",
"a.u.a.i.,.;.[ O.7.p.p.7.;.*.o.( ` ( ! o.B g w.a.w.7.7.p.p.4.O.o.o.` K r x ;.6.o.W K U K K U v > i.k.",
"T.>.E.i.u.( V 4.[ 4.p.4.o.[ ~ ! ! U B X.B g w.r.t.o.o.w.9.[ E [ O.L K r B :.o.~ K ! ! K V E v ; s.k.",
"C.9.m.e.q.[ _ ~ ~ ~ ~ ~ [ ~ ^ ` o.! B F x g b.w.q.O._ E ~ ~ ~ ~ O.K K r B 6.K K K L B K V B g + 0.Z.",
"m.9.c.:.{ ~ ~ Q [ [ _ O.-.o.[ X.! S x N h r w.6.-.[ ! _ { O.-.O.L B K e B ;.K H ! ! K ! U B x ; s.v.",
"n.e.j.) ^ ^  ._ V V ~ [ { ` ! ! S B n F x g 8.8.' ! L ^ ] ` _ W B F H t H ,.^ F N B x S S l h + y.Z.",
"Z.u.n.) ^ _ | Q V V H ! ^ L G H n n F n C h :.8.%._ Q W Q L m c c S F t C %.P C h k j C C x h & s.v.",
"D.0.y.' / Q Q m m n m D D C n n n b D b j y / | ^ J D S D D m m N A n 7 j T C j a j j b c l h $ y.Z.",
"D.$.} T } P J m J m m m D S n C G m G f j 0 m P P D n m m D D D F D l w b Z n l j l j l j a a # y.z.",
"`.Z u y m b h n m n n n m n n n f s b 7 y 1 0 b D n b n n n n n b j 0 0 s y y a s l s s s y a = y.Z.",
"oXf # @ 2 @ @ 2 $ @ # * - = # # * # 2 @ - @ @ , - # @ # $ $ # * - = . # , = # - # = # * = = -   u.Z.",
"|.{.d.1.2.s.2.2.s.s.s.s.2.2.2.2.2.2.2.2.2.2.2.2.2.2.2.2.2.y.2.2.2.y.2.y.2.0.2.u.0.2.0.2.0.2.0.s.}.f.",
"z.z.z.l.Z.Z.z.z.z.z.l.z.z.z.z.z.z.z.l.z.z.z.z.z.z.z.z.z.k.z.k.z.v.l.z.z.Z.k.z.l.z.z.z.z.k.Z.k.z.d.$."
};
